# xmcd
#
# Track frame offsets: 
#        150
#        16775
#        32957
#        53662
#        77625
#        108825
#
# Disc length: 2010 seconds
#
# Revision: 4
# Processed by: cddbd v1.5.2PL0 Copyright (c) Steve Scherf et al.
# Submitted via: ExactAudioCopyFreeDBPlugin 1.0
#
DISCID=3a07d806
DTITLE=Whitney Houston - Heartbreak Hotel
DYEAR=1998
DGENRE=R&B*
TTITLE0=Heartbreak Hotel (R.I.P. Mix)
TTITLE1=Heartbreak Hotel (Undadoggz Radio Edit)
TTITLE2=Heartbreak Hotel (Album Version)
TTITLE3=Megamix (Love To Infinity Edit)
TTITLE4=I Will Always Love You {Remastered 2000}
TTITLE5=DATA
EXTD=
EXTT0=
EXTT1=
EXTT2=
EXTT3=
EXTT4=
EXTT5=
PLAYORDER=
